{"title":"sanju weds geetha , kannada dvd 720x576","uid":6610564,"size":1357645931,"categoryP":"video","categoryS":"movies_dvdr","magnet":"?xt=urn:btih:e769e52b2de7e1e45edfefb200804c1822bc0d3e&amp;dn=sanju+weds+geetha+%2C+kannada+dvd+720x576&amp;tr=udp%3A%2F%2Ftracker.openbittorrent.com%3A80&amp;tr=udp%3A%2F%2Fopen.demonii.com%3A1337&amp;tr=udp%3A%2F%2Ftracker.coppersurfer.tk%3A6969&amp;tr=udp%3A%2F%2Fexodus.desync.com%3A6969","seeders":0,"leechers":1,"uploader":"kiranhop","files":1,"time":1313577554,"description":"BY  kiranhop\n\nsanju weds geetha.rar\n\nVideo\n\nFormat : MPEG-4 Visual\nFormat profile : Simple@L1\nFormat settings, BVOP : No\nFormat settings, QPel : No\nFormat settings, GMC : No warppoints\nFormat settings, Matrix : Default (H.263)\nCodec ID : DX50\nCodec ID/Hint : DivX 5\nDuration : 2h 32mn\nBit rate : 1 378 Kbps\nWidth : 720 pixels\nHeight : 576 pixels\nDisplay aspect ratio : 4:3\nFrame rate : 29.970 fps\nColor space : YUV\nChroma subsampling : 4:2:0\nBit depth : 8 bits\nScan type : Progressive\nCompression mode : Lossy\nBits/(Pixel*Frame) : 0.118\nStream size : 1.26 GiB\nLanguage : Kannada\n\nAudio\n\nFormat : MPEG Audio\nFormat version : Version 1\nFormat profile : Layer 3\nMuxing mode : Header stripping\nCodec ID : A_MPEG/L3\nCodec ID/Hint : MP3\nBit rate mode : Constant\nBit rate : 128 Kbps\nChannel(s) : 2 channels\nSampling rate : 48.0 KHz\nCompression mode : Lossy\nStream size : 139 MiB (8%)\nLanguage : Kannada","torrent":{"xt":"urn:btih:e769e52b2de7e1e45edfefb200804c1822bc0d3e","amp;dn":"sanju+weds+geetha+%2C+kannada+dvd+720x576","amp;tr":["udp%3A%2F%2Ftracker.openbittorrent.com%3A80","udp%3A%2F%2Fopen.demonii.com%3A1337","udp%3A%2F%2Ftracker.coppersurfer.tk%3A6969","udp%3A%2F%2Fexodus.desync.com%3A6969"],"infoHash":"e769e52b2de7e1e45edfefb200804c1822bc0d3e","infoHashBuffer":{"type":"Buffer","data":[231,105,229,43,45,231,225,228,94,223,239,178,0,128,76,24,34,188,13,62]},"announce":[],"urlList":[]}}